<?xml version="1.0" standalone="no"?>
<!DOCTYPE svg PUBLIC "-//W3C//DTD SVG 20010904//EN"
 "http://www.w3.org/TR/2001/REC-SVG-20010904/DTD/svg10.dtd">
<svg version="1.0" xmlns="http://www.w3.org/2000/svg"
 width="570.000000pt" height="570.000000pt" viewBox="0 0 570.000000 570.000000"
 preserveAspectRatio="xMidYMid meet">
<metadata>
Created by potrace 1.14, written by Peter Selinger 2001-2017
</metadata>
<g transform="translate(0.000000,570.000000) scale(0.100000,-0.100000)"
fill="#000000" stroke="none">
<path d="M4015 4513 c-146 -31 -300 -111 -433 -224 l-80 -67 -37 25 c-114 77
-300 140 -488 163 -137 18 -434 8 -552 -18 -299 -65 -532 -207 -695 -424 -267
-354 -276 -850 -20 -1109 96 -97 214 -149 337 -149 45 0 53 3 53 18 0 16 -13
21 -82 31 -208 29 -362 175 -424 401 -28 102 -26 309 5 425 44 170 125 316
245 442 65 69 71 73 113 73 50 0 107 -21 140 -52 13 -12 33 -46 45 -77 l23
-56 3 -1105 c3 -1142 1 -1230 -37 -1315 -23 -52 -71 -93 -119 -100 -81 -14
-92 -17 -92 -31 0 -12 56 -14 360 -14 344 0 360 1 360 19 0 15 -10 19 -55 24
-96 10 -151 58 -176 155 -8 33 -13 211 -16 610 l-4 562 75 0 c64 0 77 3 86 19
5 11 10 22 10 25 0 3 -39 6 -86 6 l-85 0 3 568 c4 505 6 573 21 619 32 96 92
143 182 143 38 0 45 3 45 20 0 20 -7 20 -337 20 l-337 0 34 25 c54 40 198 110
282 138 341 114 789 93 1073 -49 121 -61 119 -51 33 -146 -269 -299 -428 -565
-749 -1255 -56 -119 -125 -266 -155 -325 l-54 -108 0 -122 0 -123 37 55 c82
122 210 346 309 543 l105 207 42 -6 c90 -15 150 -54 202 -132 25 -37 32 -42
66 -42 22 0 39 5 39 11 0 6 -38 49 -85 95 l-84 83 42 11 c212 55 271 78 378
146 280 178 387 521 248 797 -37 72 -76 127 -135 188 -24 26 -44 51 -44 56 0
28 174 158 284 212 171 83 396 109 536 62 122 -42 206 -108 275 -216 36 -55
57 -65 63 -31 5 26 -53 109 -122 173 -67 63 -142 104 -232 128 -74 19 -246 18
-339 -2z m-404 -496 c40 -86 54 -182 40 -283 -27 -191 -116 -368 -254 -503
-127 -124 -246 -182 -409 -199 -58 -6 -78 -5 -78 4 0 6 32 78 71 160 280 583
347 709 469 874 l63 84 35 -39 c19 -22 47 -66 63 -98z"/>
<path d="M3700 4120 c0 -17 7 -20 51 -20 66 0 115 -24 146 -70 51 -78 53 -101
53 -702 l0 -558 -568 0 -569 0 -11 -25 -12 -25 580 0 580 0 0 -546 c0 -613 -4
-653 -63 -721 -58 -66 -149 -84 -186 -37 -61 77 -111 226 -187 554 -88 379
-118 486 -184 643 l-32 77 -50 0 c-42 0 -49 -2 -44 -17 19 -66 38 -158 60
-288 76 -452 143 -673 262 -866 86 -140 174 -224 301 -288 92 -46 180 -64 294
-59 87 3 103 7 172 41 175 86 280 284 280 527 0 124 -18 204 -69 309 -40 81
-140 191 -174 191 -34 0 -22 -26 39 -87 107 -108 155 -235 155 -413 0 -127
-14 -191 -66 -293 l-29 -59 -52 4 c-104 9 -153 53 -182 163 -13 52 -15 201
-15 1187 0 780 3 1143 11 1180 15 70 52 134 92 155 18 10 57 20 87 23 40 4 55
9 55 20 0 13 -48 15 -362 18 -358 2 -363 2 -363 -18z m661 -2804 c-87 -90
-253 -122 -416 -81 -48 13 -138 61 -164 89 l-24 26 318 0 319 0 -33 -34z"/>
<path d="M1059 2219 c-41 -41 -63 -108 -67 -210 -10 -237 118 -420 329 -468
58 -14 190 -14 265 0 136 24 304 97 424 184 114 83 120 91 120 156 l0 57 -82
-85 c-192 -197 -381 -279 -623 -271 -92 3 -119 8 -165 29 -72 34 -124 80 -161
143 -39 68 -41 165 -4 264 13 37 34 95 47 128 19 52 20 64 9 78 -19 23 -67 20
-92 -5z"/>
</g>
</svg>
