<svg id="Layer_1" data-name="Layer 1" xmlns="http://www.w3.org/2000/svg" viewBox="0 0 150.77 31.86"><defs><style>.cls-1{fill:#f4313f;}</style></defs><g id="Group_1" data-name="Group 1"><path id="Path_1" data-name="Path 1" class="cls-1" d="M126.44,11.11v9.13a17.5,17.5,0,0,1,0,2.29,5.3,5.3,0,0,1-.5,1.87,4.19,4.19,0,0,1-1.44,1.46,6.35,6.35,0,0,1-2.84.55,7.57,7.57,0,0,1-3.12-.55,3.73,3.73,0,0,1-1.3-1.46,6.13,6.13,0,0,1-.51-2,16.17,16.17,0,0,1,0-2.09V11.11a3.42,3.42,0,0,0-1.82-2.91,3.47,3.47,0,0,0-1.58-.38,3.38,3.38,0,0,0-3.39,3.32v9.49q0,5.65,2.73,8.9c1.82,2.17,5.38,3.25,9,3.25s7-1.05,8.86-3.15,2.77-5.1,2.77-9V11.22a3.39,3.39,0,0,0-3.4-3.4,3.47,3.47,0,0,0-1.58.38,3.41,3.41,0,0,0-1.82,3" transform="translate(-6.61 -1.07)"/><path id="Path_2" data-name="Path 2" class="cls-1" d="M73.54,11.52V11.1A3.45,3.45,0,0,1,77,7.86a3.39,3.39,0,0,1,1.62.41,3.44,3.44,0,0,1,1.83,3V27.72A4.27,4.27,0,0,1,78.85,31a5.53,5.53,0,0,1-3.78,1.39,5.24,5.24,0,0,1-4.54-2.24l-8-12.65v11.8a3.45,3.45,0,0,1-6.89.29V13a4.28,4.28,0,0,1,1.59-3.33A5.52,5.52,0,0,1,61,8.27a5.24,5.24,0,0,1,4.54,2.2l8,12.64V11.52" transform="translate(-6.61 -1.07)"/><path id="Path_3" data-name="Path 3" class="cls-1" d="M100.62,11.52V11.1a3.45,3.45,0,0,1,3.44-3.24,3.39,3.39,0,0,1,1.62.41,3.44,3.44,0,0,1,1.83,3h0V27.72A4.29,4.29,0,0,1,105.93,31a5.58,5.58,0,0,1-3.78,1.39,5.23,5.23,0,0,1-4.54-2.24l-8-12.65V29.33a3.45,3.45,0,0,1-1.93,3.1,3.41,3.41,0,0,1-3,0,3.46,3.46,0,0,1-1.91-2.8V13a4.31,4.31,0,0,1,1.58-3.33,5.56,5.56,0,0,1,3.79-1.38,5.25,5.25,0,0,1,4.54,2.2l8,12.64V11.52" transform="translate(-6.61 -1.07)"/><path id="Path_4" data-name="Path 4" class="cls-1" d="M50.45,32.77a3.4,3.4,0,0,0,2.85-3,1.18,1.18,0,0,0,0-.26V11.81A3.45,3.45,0,0,0,51.77,8.9a3.57,3.57,0,0,0-3-.37A3.72,3.72,0,0,0,47,9.82a11.64,11.64,0,0,0-6.57-1.93A12.52,12.52,0,1,0,46.93,31a3.47,3.47,0,0,0,3.51,1.75M40.38,26.84a6.44,6.44,0,1,1,6.44-6.43h0a6.43,6.43,0,0,1-6.44,6.43h0" transform="translate(-6.61 -1.07)"/><path id="Path_5" data-name="Path 5" class="cls-1" d="M9.94,1.07h0a3.35,3.35,0,0,0,0,6.69h8.53V32.82h7.07v-25h8.9l3.84-6.7Z" transform="translate(-6.61 -1.07)"/><path id="Path_6" data-name="Path 6" class="cls-1" d="M135.21,26.92c.81,2.17,3.38,6,11.35,6a22.18,22.18,0,0,0,4.59-.51,8.77,8.77,0,0,0,3.44-1.61,7.44,7.44,0,0,0,2.17-2.56,7,7,0,0,0,.62-3.28c0-7.6-14.32-7-15.11-9.57-.53-1.71,1.13-2.29,1.8-2.4a10.63,10.63,0,0,1,2.25-.13c1.73.11,3.38.76,3.88,2.18a5.34,5.34,0,0,0,.42.91,3.42,3.42,0,0,0,2.76,1.48A3.38,3.38,0,0,0,156,15.92a3.24,3.24,0,0,0,.27-2.83c-1.3-3.52-4.91-5.32-9.78-5.38a20.32,20.32,0,0,0-5,.4,9.61,9.61,0,0,0-3.38,1.58A7.44,7.44,0,0,0,136.24,12a6.48,6.48,0,0,0-.61,3.19c.62,7.68,14.3,6.87,15.17,9.43a2.19,2.19,0,0,1,.11.84,1.78,1.78,0,0,1-.8,1.33,6.68,6.68,0,0,1-3.59.75c-2.81,0-4.42-.73-4.84-2.64l0,.12a2.85,2.85,0,0,0-.48-1.15,3.5,3.5,0,0,0-2.89-1.44,3.4,3.4,0,0,0-2.73,1.34,3.55,3.55,0,0,0-.4,3.15" transform="translate(-6.61 -1.07)"/></g></svg>